<svg xmlns="http://www.w3.org/2000/svg" viewBox="0 0 172.92 44.66"><defs><style>.cls-1{fill:#1d4061;}.cls-2{fill:#3db499;}.cls-3{fill:#1d4160;}</style></defs><g id="Livello_2" data-name="Livello 2"><g id="Livello_1-2" data-name="Livello 1"><path class="cls-1" d="M13,42.78,37,28.86A7.46,7.46,0,0,0,37,16L11.06,1A7.37,7.37,0,0,0,0,7.38H0l26.05,15L13,29.85Z"/><path class="cls-2" d="M11.08,16V43.67h0A7.4,7.4,0,0,1,0,37.24V9.68Z"/><path class="cls-3" d="M47.44,13.59h7.13a11.33,11.33,0,0,1,5.14,1.09A7.69,7.69,0,0,1,63,17.83a10,10,0,0,1,1.14,4.91A10.06,10.06,0,0,1,63,27.67a7.5,7.5,0,0,1-3.29,3.16,11.31,11.31,0,0,1-5.17,1.09H47.44Zm6.84,15.06q5.85,0,5.85-5.91t-5.85-5.87H51.5V28.65Z"/><path class="cls-3" d="M66.84,13h4.21v3.67H66.84ZM67,31.92V19.15h3.92V31.92Z"/><path class="cls-3" d="M86.94,19.15V30.54a5.94,5.94,0,0,1-1.77,4.68,7.59,7.59,0,0,1-5.23,1.59,12.73,12.73,0,0,1-3.29-.42,9.63,9.63,0,0,1-2.77-1.17l1.05-2.7a10.14,10.14,0,0,0,4.91,1.35q3.22,0,3.22-3V29.42A3.84,3.84,0,0,1,81.43,31a5.12,5.12,0,0,1-2.45.58,5.58,5.58,0,0,1-3-.78,5.26,5.26,0,0,1-2-2.23,7.24,7.24,0,0,1-.73-3.34A7.27,7.27,0,0,1,74,21.87a5.31,5.31,0,0,1,2-2.23,5.5,5.5,0,0,1,3-.8,5.19,5.19,0,0,1,2.41.56A3.93,3.93,0,0,1,83,21v-1.8Zm-4.67,8.53A3.65,3.65,0,0,0,83,25.21a3.72,3.72,0,0,0-.77-2.48,2.67,2.67,0,0,0-2.14-.9,2.71,2.71,0,0,0-2.16.9,3.67,3.67,0,0,0-.78,2.48A3.63,3.63,0,0,0,78,27.67a3,3,0,0,0,4.3,0Z"/><path class="cls-3" d="M89.82,13H94v3.67H89.82ZM90,31.92V19.15h3.93V31.92Z"/><path class="cls-3" d="M105.21,29.16,105,32a11.07,11.07,0,0,1-1.51.11,6,6,0,0,1-4.25-1.28A5.1,5.1,0,0,1,97.91,27V22.09H95.49V19.15h2.42V15.41h3.93v3.74H105v2.94h-3.19V27c0,1.52.7,2.28,2.13,2.28A8.89,8.89,0,0,0,105.21,29.16Z"/><path class="cls-3" d="M106.83,13H111v3.67h-4.21Zm.13,18.9V19.15h3.92V31.92Z"/><path class="cls-3" d="M118.19,29h6.71v2.94H113.59V29.19l6.34-7.1h-6.27V19.15h11v2.63Z"/><path class="cls-3" d="M138.36,26.28H130a3.35,3.35,0,0,0,1,2.22,3.54,3.54,0,0,0,2.33.69,6.27,6.27,0,0,0,3.75-1.25l1,2.63a7.17,7.17,0,0,1-2.28,1.14,8.93,8.93,0,0,1-2.69.42,7,7,0,0,1-5.08-1.78,6.41,6.41,0,0,1-1.86-4.85,7.33,7.33,0,0,1,.8-3.46,6,6,0,0,1,2.24-2.35,6.3,6.3,0,0,1,3.25-.85,5.44,5.44,0,0,1,4.25,1.74,6.81,6.81,0,0,1,1.57,4.74Zm-7.5-4a3.64,3.64,0,0,0-.82,2.07h5a3.37,3.37,0,0,0-.69-2.08,2.15,2.15,0,0,0-1.73-.7A2.33,2.33,0,0,0,130.86,22.26Z"/><path class="cls-3" d="M149.86,22.07l-2.21.23a3.4,3.4,0,0,0-2.32.92,3,3,0,0,0-.67,2.05v6.65h-3.93V19.15h3.77v2.16c.64-1.47,2-2.28,4-2.41l1.14-.08Z"/><path class="cls-3" d="M152.7,31.73a8.08,8.08,0,0,1-2.53-1.16l1-2.71A8.51,8.51,0,0,0,153.5,29a8.39,8.39,0,0,0,2.52.39,2.8,2.8,0,0,0,1.42-.3.92.92,0,0,0,.5-.82.84.84,0,0,0-.35-.73,3.75,3.75,0,0,0-1.31-.47l-2.08-.47a5.44,5.44,0,0,1-2.72-1.28,3.23,3.23,0,0,1-.87-2.38,3.4,3.4,0,0,1,.69-2.11,4.64,4.64,0,0,1,1.95-1.43,7.61,7.61,0,0,1,2.87-.52,8.68,8.68,0,0,1,2.68.42,8.28,8.28,0,0,1,2.34,1.17l-1,2.6a7,7,0,0,0-4-1.4,2.74,2.74,0,0,0-1.43.31,1,1,0,0,0-.52.88.76.76,0,0,0,.31.65,3.34,3.34,0,0,0,1.09.44l2.16.5a5.66,5.66,0,0,1,2.84,1.34,3.25,3.25,0,0,1,.9,2.43,3.38,3.38,0,0,1-1.47,2.9,6.83,6.83,0,0,1-4,1.05A12.61,12.61,0,0,1,152.7,31.73Z"/><rect class="cls-2" x="163.19" y="29.03" width="9.73" height="2.84"/></g></g></svg>