<?xml version="1.0" encoding="UTF-8" standalone="no"?>
<svg
   width="289.134pt"
   height="90.708603pt"
   viewBox="0 0 289.134 90.7086"
   version="1.1"
   id="svg26"
   xmlns="http://www.w3.org/2000/svg"
   xmlns:svg="http://www.w3.org/2000/svg">
  <defs
     id="defs26" />
  <path
     fill-rule="nonzero"
     fill="#393b3e"
     fill-opacity="1"
     d="m 81.625,25.449219 c 0,4.53125 -3.671875,8.199219 -8.203125,8.199219 -4.527344,0 -8.199219,-3.667969 -8.199219,-8.199219 0,-4.527344 3.671875,-8.199219 8.199219,-8.199219 4.53125,0 8.203125,3.671875 8.203125,8.199219"
     id="path1" />
  <path
     fill-rule="nonzero"
     fill="#393b3e"
     fill-opacity="1"
     d="M 41.902344,5.796875 V 47.742188 H 18.6875 V 33.648438 H 4.027344 V 76.65625 H 18.6875 V 62.402344 H 41.902344 V 76.65625 H 56.5625 V 5.796875 Z m 0,0"
     id="path2" />
  <path
     fill-rule="nonzero"
     fill="#226d5e"
     fill-opacity="1"
     d="m 132.27734,33.730469 h -0.0898 c -0.004,7.738281 -6.27344,14.011719 -14.01172,14.011719 -7.73828,0 -14.01172,-6.273438 -14.01172,-14.011719 0,-7.738281 6.27344,-14.011719 14.01172,-14.011719 V 5.058594 c -15.83594,0 -28.671874,12.835937 -28.671874,28.671875 0,15.835937 12.835934,28.671875 28.671874,28.671875 5.08985,0 9.86328,-1.332032 14.00781,-3.65625 -0.0234,7.71875 -6.28515,13.964844 -14.00781,13.964844 V 87.375 c 15.83203,0 28.67188,-12.839844 28.67188,-28.671875 V 43.707031 Z m 0,0"
     id="path3" />
  <path
     fill-rule="nonzero"
     fill="#393b3e"
     fill-opacity="1"
     d="m 164.14453,5.796875 h 3.48828 V 11.6875 h 6.15625 V 5.796875 h 3.49219 v 14.511719 h -3.49219 v -5.972656 h -6.15625 v 5.972656 h -3.48828 z m 0,0"
     id="path4" />
  <path
     fill-rule="nonzero"
     fill="#393b3e"
     fill-opacity="1"
     d="M 187.37891,17.457031 V 15.6875 l -1.6836,0.04297 c -1.00781,0.02344 -1.74609,0.351562 -1.74609,1.167969 0,0.660156 0.63672,0.945312 1.25,0.945312 0.66015,0 1.4375,-0.183594 2.17969,-0.386719 M 180.625,17.105469 c 0,-2.832031 2.58594,-3.40625 4.80469,-3.40625 h 1.94922 V 13 c 0,-0.984375 -0.63672,-1.273438 -2.03516,-1.273438 -1.10547,0 -2.29688,0.25 -3.34375,0.496094 l -0.67969,-2.484375 c 1.27344,-0.492187 2.75,-0.902343 4.53906,-0.902343 3.46485,0 4.86329,0.984374 4.86329,3.507812 v 4.988281 c 0,0.367188 0.37109,0.449219 1.0039,0.472657 l -0.12109,2.585937 c -0.26563,0.01953 -0.53516,0.01953 -0.80078,0.01953 -1.35547,0 -2.79297,-0.226562 -3.09766,-1.191406 -0.82031,0.636719 -1.99219,1.273438 -3.22266,1.273438 -2.46484,0 -3.85937,-1.148438 -3.85937,-3.386719"
     id="path5" />
  <path
     fill-rule="nonzero"
     fill="#393b3e"
     fill-opacity="1"
     d="M 195.07422,9.101562 H 198.5 v 1.5 c 0.55469,-0.71875 1.60156,-1.726562 2.89453,-1.726562 0.61719,0 1.06641,0.042969 1.53906,0.183594 l -0.45312,2.8125 C 201.82422,11.75 201.59766,11.75 200.98437,11.75 c -1.00781,0 -2.03125,0.472656 -2.48437,0.964844 v 7.59375 h -3.42578 z m 0,0"
     id="path6" />
  <path
     fill-rule="nonzero"
     fill="#393b3e"
     fill-opacity="1"
     d="m 205.08984,9.101562 h 3.42578 v 1.128907 c 0.94532,-0.71875 2.30079,-1.4375 3.63282,-1.4375 1.60156,0 2.6875,0.660156 3.14062,1.703125 0.86328,-0.777344 2.40235,-1.703125 3.85938,-1.703125 3.65234,0 3.58984,2.609375 3.58984,4.496093 v 7.019532 h -3.42578 v -6.730469 c 0,-1.375 -0.35156,-1.808594 -1.41797,-1.808594 -0.73828,0 -1.68359,0.308594 -2.32031,0.636719 0.043,0.289062 0.043,0.574219 0.043,0.863281 v 7.039063 h -3.40625 v -6.730469 c 0,-1.539063 -0.3711,-1.765625 -1.39453,-1.765625 -0.76172,0 -1.6836,0.226562 -2.30079,0.554688 v 7.941406 h -3.42578 z m 0,0"
     id="path7" />
  <path
     fill-rule="nonzero"
     fill="#393b3e"
     fill-opacity="1"
     d="m 234.02734,14.707031 c 0,-1.808593 -0.45312,-3.183593 -2.33984,-3.183593 -1.84766,0 -2.35938,1.375 -2.35938,3.203124 0,1.925782 0.57422,3.097657 2.39844,3.097657 1.84766,0 2.30078,-1.210938 2.30078,-3.117188 m -8.14843,0.101563 c 0,-3.714844 2.32031,-5.996094 5.87109,-5.996094 3.98047,0 5.76562,2.238281 5.76562,5.894531 0,3.816407 -2.5039,5.847657 -5.95312,5.847657 -3.69141,0 -5.68359,-2.238282 -5.68359,-5.746094"
     id="path8" />
  <path
     fill-rule="nonzero"
     fill="#393b3e"
     fill-opacity="1"
     d="m 240.65625,9.101562 h 3.42578 v 1.128907 c 0.67578,-0.511719 2.15625,-1.414063 3.65625,-1.414063 3.50781,0 3.75391,1.929688 3.75391,4.472656 v 7.019532 h -3.40625 v -6.730469 c 0,-1.539063 -0.34766,-1.808594 -1.5,-1.808594 -1.02735,0 -1.94922,0.328125 -2.50391,0.597657 v 7.941406 h -3.42578 z m 0,0"
     id="path9" />
  <path
     fill-rule="nonzero"
     fill="#393b3e"
     fill-opacity="1"
     d="m 255.26953,9.101562 h 3.40625 v 11.207032 h -3.40625 z m -0.59766,-3.488281 2.27735,-2.277343 2.30078,2.277343 -2.30078,2.296875 z m 0,0"
     id="path10" />
  <path
     fill-rule="nonzero"
     fill="#393b3e"
     fill-opacity="1"
     d="m 261.81641,14.601562 c 0,-3.488281 2.33984,-5.785156 6.13671,-5.785156 1.64063,0 2.6875,0.304688 3.57032,0.777344 l -0.88282,2.484375 c -0.90234,-0.351563 -1.39453,-0.472656 -2.54687,-0.472656 -1.41406,0 -2.76953,0.636719 -2.76953,3.039062 0,2.152344 0.51172,3.160157 3.20312,3.160157 0.94141,0 1.45703,-0.125 2.37891,-0.289063 l 0.47266,2.609375 c -1.21094,0.265625 -1.78516,0.410156 -3.03907,0.410156 -4.73828,0 -6.52343,-1.746094 -6.52343,-5.933594"
     id="path11" />
  <path
     fill-rule="nonzero"
     fill="#393b3e"
     fill-opacity="1"
     d="m 164.14453,26.847656 h 3.48828 v 14.511719 h -3.48828 z m 0,0"
     id="path12" />
  <path
     fill-rule="nonzero"
     fill="#393b3e"
     fill-opacity="1"
     d="m 171.59375,30.152344 h 3.42969 v 1.128906 c 0.67578,-0.515625 2.15234,-1.417969 3.65234,-1.417969 3.50781,0 3.75391,1.929688 3.75391,4.476563 v 7.015625 h -3.40625 V 34.625 c 0,-1.539062 -0.34766,-1.804688 -1.4961,-1.804688 -1.02734,0 -1.95312,0.328126 -2.5039,0.59375 v 7.941407 h -3.42969 z m 0,0"
     id="path13" />
  <path
     fill-rule="nonzero"
     fill="#393b3e"
     fill-opacity="1"
     d="m 186.1875,30.152344 h 3.42578 v 1.128906 c 0.67578,-0.515625 2.15625,-1.417969 3.65234,-1.417969 3.51172,0 3.75782,1.929688 3.75782,4.476563 v 7.015625 h -3.40625 V 34.625 c 0,-1.539062 -0.35157,-1.804688 -1.5,-1.804688 -1.02735,0 -1.94922,0.328126 -2.50391,0.59375 v 7.941407 h -3.42578 z m 0,0"
     id="path14" />
  <path
     fill-rule="nonzero"
     fill="#393b3e"
     fill-opacity="1"
     d="m 208.3125,35.753906 c 0,-1.804687 -0.45313,-3.179687 -2.34375,-3.179687 -1.84375,0 -2.35938,1.375 -2.35938,3.203125 0,1.925781 0.57813,3.097656 2.40235,3.097656 1.84765,0 2.30078,-1.210938 2.30078,-3.121094 m -8.14844,0.105469 c 0,-3.714844 2.32031,-5.996094 5.86719,-5.996094 3.98437,0 5.76953,2.238281 5.76953,5.890625 0,3.816406 -2.50391,5.851563 -5.95312,5.851563 -3.69532,0 -5.6836,-2.238281 -5.6836,-5.746094"
     id="path15" />
  <path
     fill-rule="nonzero"
     fill="#393b3e"
     fill-opacity="1"
     d="m 213.70703,30.152344 h 3.67578 l 1.88672,6.074218 0.57422,2.238282 0.63672,-2.238282 2.09375,-6.074218 h 3.58984 L 221.8125,41.355469 H 217.75 Z m 0,0"
     id="path16" />
  <path
     fill-rule="nonzero"
     fill="#393b3e"
     fill-opacity="1"
     d="m 234.70312,38.503906 v -1.765625 l -1.68359,0.04297 c -1.00391,0.01953 -1.74219,0.347656 -1.74219,1.167969 0,0.660156 0.63672,0.945312 1.25,0.945312 0.65625,0 1.4375,-0.183593 2.17578,-0.390625 m -6.75,-0.347656 c 0,-2.832031 2.58594,-3.40625 4.80079,-3.40625 h 1.94921 v -0.699219 c 0,-0.984375 -0.63671,-1.273437 -2.03125,-1.273437 -1.10937,0 -2.29687,0.25 -3.34375,0.496094 l -0.67968,-2.484376 c 1.27343,-0.492187 2.75,-0.902343 4.53515,-0.902343 3.46875,0 4.86719,0.984375 4.86719,3.507812 v 4.988281 c 0,0.367188 0.36719,0.449219 1.00391,0.472657 l -0.1211,2.585937 c -0.26953,0.01953 -0.53515,0.01953 -0.80078,0.01953 -1.35547,0 -2.79297,-0.226563 -3.10156,-1.191407 -0.82031,0.636719 -1.98828,1.273438 -3.22266,1.273438 -2.46093,0 -3.85547,-1.148438 -3.85547,-3.386719"
     id="path17" />
  <path
     fill-rule="nonzero"
     fill="#393b3e"
     fill-opacity="1"
     d="m 242.8125,37.867188 v -5.191407 h -1.64453 v -2.523437 h 1.64453 v -2.300782 h 3.40234 v 2.300782 h 3.47266 v 2.523437 h -3.47266 v 5.171875 c 0,0.820313 0.3086,0.882813 1.23438,0.882813 0.75781,0 2.42187,-0.226563 2.42187,-0.226563 l 0.32813,2.6875 c -0.80078,0.226563 -1.88672,0.390625 -2.71094,0.390625 -2.15234,0 -4.67578,0.101563 -4.67578,-3.714843"
     id="path18" />
  <path
     fill-rule="nonzero"
     fill="#393b3e"
     fill-opacity="1"
     d="m 252.94922,30.152344 h 3.40625 v 11.207031 h -3.40625 z m -0.59375,-3.488282 2.27734,-2.28125 2.29688,2.28125 -2.29688,2.296876 z m 0,0"
     id="path19" />
  <path
     fill-rule="nonzero"
     fill="#393b3e"
     fill-opacity="1"
     d="m 267.64453,35.753906 c 0,-1.804687 -0.45312,-3.179687 -2.33984,-3.179687 -1.84766,0 -2.35938,1.375 -2.35938,3.203125 0,1.925781 0.57422,3.097656 2.39844,3.097656 1.84766,0 2.30078,-1.210938 2.30078,-3.121094 m -8.14844,0.105469 c 0,-3.714844 2.32032,-5.996094 5.8711,-5.996094 3.98047,0 5.76562,2.238281 5.76562,5.890625 0,3.816406 -2.5039,5.851563 -5.95312,5.851563 -3.69141,0 -5.6836,-2.238281 -5.6836,-5.746094"
     id="path20" />
  <path
     fill-rule="nonzero"
     fill="#393b3e"
     fill-opacity="1"
     d="m 274.27344,30.152344 h 3.42578 v 1.128906 c 0.67578,-0.515625 2.15625,-1.417969 3.65234,-1.417969 3.51172,0 3.75781,1.929688 3.75781,4.476563 v 7.015625 h -3.40625 V 34.625 c 0,-1.539062 -0.35156,-1.804688 -1.5,-1.804688 -1.02734,0 -1.94921,0.328126 -2.5039,0.59375 v 7.941407 h -3.42578 z m 0,0"
     id="path21" />
  <path
     fill-rule="nonzero"
     fill="#226d5e"
     fill-opacity="1"
     d="m 163.92578,55.246094 c 0,-5.253906 2.85547,-7.554688 8.12891,-7.554688 2.05078,0 3.20312,0.410156 4.35156,0.882813 l -0.92578,2.523437 c -1.375,-0.347656 -2.00781,-0.53125 -3.48828,-0.53125 -2.58594,0 -4.51563,1.273438 -4.51563,4.472656 0,3.203126 2.13672,4.660157 4.78516,4.660157 0.32812,0 0.63281,-0.01953 0.92187,-0.01953 v -4.457032 h 3.48828 v 6.546875 c -1.64062,0.636719 -3.01562,0.84375 -4.78125,0.84375 -4.82421,0 -7.96484,-2.339843 -7.96484,-7.367187"
     id="path22" />
  <path
     fill-rule="nonzero"
     fill="#226d5e"
     fill-opacity="1"
     d="m 180.46875,51.203125 h 3.42969 v 1.496094 c 0.55078,-0.71875 1.59765,-1.722657 2.89062,-1.722657 0.61719,0 1.07031,0.03906 1.53906,0.183594 l -0.44921,2.8125 c -0.65625,-0.125 -0.88282,-0.125 -1.5,-0.125 -1.00391,0 -2.03125,0.472656 -2.48047,0.964844 v 7.59375 h -3.42969 z m 0,0"
     id="path23" />
  <path
     fill-rule="nonzero"
     fill="#226d5e"
     fill-opacity="1"
     d="m 197.60547,56.804688 c 0,-1.808594 -0.44922,-3.183594 -2.33985,-3.183594 -1.84765,0 -2.35937,1.375 -2.35937,3.203125 0,1.929687 0.57422,3.097656 2.40234,3.097656 1.84766,0 2.29688,-1.210937 2.29688,-3.117187 m -8.14844,0.101562 c 0,-3.714844 2.32031,-5.992188 5.87109,-5.992188 3.98047,0 5.76563,2.238282 5.76563,5.890626 0,3.816406 -2.50391,5.847656 -5.94922,5.847656 -3.69531,0 -5.6875,-2.238282 -5.6875,-5.746094"
     id="path24" />
  <path
     fill-rule="nonzero"
     fill="#226d5e"
     fill-opacity="1"
     d="m 204.23437,58.160156 v -6.957031 h 3.40625 v 6.667969 c 0,1.539062 0.35157,1.808594 1.5,1.808594 1.02735,0 1.94922,-0.289063 2.50391,-0.554688 v -7.921875 h 3.42578 V 62.40625 h -3.42578 v -1.148438 c -0.67969,0.511719 -2.15625,1.394532 -3.65234,1.394532 -3.51172,0 -3.75782,-1.949219 -3.75782,-4.492188"
     id="path25" />
  <path
     fill-rule="nonzero"
     fill="#226d5e"
     fill-opacity="1"
     d="m 226.44141,56.394531 c 0,-2.011719 -0.80079,-2.605469 -2.52344,-2.605469 -0.57813,0 -1.25391,0.164063 -1.6836,0.304688 v 5.789062 c 0.32813,0.03906 0.90235,0.121094 1.45704,0.121094 1.74218,0 2.75,-1.515625 2.75,-3.609375 m -7.61329,-5.191406 h 3.40625 V 52 c 0.44922,-0.386719 1.6836,-1.085938 2.70704,-1.085938 3.08203,0 4.94531,1.417969 4.94531,5.375 0,4.679688 -3.01563,6.324219 -6.27735,6.324219 -0.51562,0 -0.96484,-0.0625 -1.375,-0.08203 v 4.390625 h -3.40625 z m 0,0"
     id="path26" />
</svg>
