<?xml version="1.0" encoding="UTF-8" standalone="no"?>
<svg
   width="158.74001pt"
   height="158.74001pt"
   viewBox="0 0 158.74 158.74"
   version="1.1"
   id="svg26"
   xmlns="http://www.w3.org/2000/svg"
   xmlns:svg="http://www.w3.org/2000/svg">
  <defs
     id="defs26" />
  <path
     fill-rule="nonzero"
     fill="#393b3e"
     fill-opacity="1"
     d="m 85.660156,24.78125 c 0,4.527344 -3.667968,8.199219 -8.199218,8.199219 -4.527344,0 -8.199219,-3.671875 -8.199219,-8.199219 0,-4.53125 3.671875,-8.199219 8.199219,-8.199219 4.53125,0 8.199218,3.667969 8.199218,8.199219"
     id="path1" />
  <path
     fill-rule="nonzero"
     fill="#393b3e"
     fill-opacity="1"
     d="M 45.9375,5.125 V 47.070312 H 22.722656 V 32.980469 H 8.0625 V 75.988281 H 22.722656 V 61.734375 H 45.9375 V 75.988281 H 60.597656 V 5.125 Z m 0,0"
     id="path2" />
  <path
     fill-rule="nonzero"
     fill="#226d5e"
     fill-opacity="1"
     d="m 136.3125,33.058594 h -0.0859 v 0.0039 c -0.004,7.738281 -6.27734,14.007812 -14.01562,14.007812 -7.73438,0 -14.00781,-6.273437 -14.00781,-14.011718 0,-7.738282 6.27343,-14.007813 14.00781,-14.007813 V 4.386719 c -15.83203,0 -28.671878,12.839843 -28.671878,28.671875 0,15.835937 12.839848,28.675781 28.671878,28.675781 5.09375,0 9.86718,-1.332031 14.01172,-3.660156 -0.0234,7.71875 -6.28516,13.96875 -14.01172,13.96875 v 14.660156 c 15.83593,0 28.67578,-12.835937 28.67578,-28.671875 V 43.039062 Z m 0,0"
     id="path3" />
  <path
     fill-rule="nonzero"
     fill="#393b3e"
     fill-opacity="1"
     d="M 8.070312,93.226562 H 11.5625 v 5.890626 h 6.15625 v -5.890626 h 3.488281 V 107.73828 H 17.71875 v -5.97265 H 11.5625 v 5.97265 H 8.070312 Z m 0,0"
     id="path4" />
  <path
     fill-rule="nonzero"
     fill="#393b3e"
     fill-opacity="1"
     d="m 31.304688,104.88672 v -1.76563 l -1.683594,0.0391 c -1.003906,0.0234 -1.742188,0.35156 -1.742188,1.17187 0,0.65625 0.632813,0.94141 1.25,0.94141 0.65625,0 1.4375,-0.1836 2.175782,-0.38672 m -6.753907,-0.35156 c 0,-2.83203 2.585938,-3.40625 4.804688,-3.40625 h 1.949219 v -0.69922 c 0,-0.984378 -0.636719,-1.27344 -2.03125,-1.27344 -1.109376,0 -2.300782,0.25 -3.347657,0.496094 L 25.25,97.167969 c 1.273438,-0.492188 2.75,-0.902344 4.535156,-0.902344 3.46875,0 4.863282,0.984375 4.863282,3.507813 v 4.988282 c 0,0.37109 0.371093,0.45312 1.007812,0.47266 l -0.125,2.58593 c -0.265625,0.0195 -0.535156,0.0195 -0.800781,0.0195 -1.351563,0 -2.789063,-0.22656 -3.097657,-1.1914 -0.820312,0.63672 -1.992187,1.27344 -3.222656,1.27344 -2.460937,0 -3.859375,-1.14844 -3.859375,-3.38672"
     id="path5" />
  <path
     fill-rule="nonzero"
     fill="#393b3e"
     fill-opacity="1"
     d="m 39,96.53125 h 3.429688 v 1.5 c 0.550781,-0.71875 1.597656,-1.726562 2.890624,-1.726562 0.617188,0 1.070313,0.04297 1.539063,0.1875 l -0.449219,2.808593 c -0.65625,-0.121093 -0.882812,-0.121093 -1.5,-0.121093 -1.003906,0 -2.03125,0.472656 -2.480468,0.964842 v 7.59375 H 39 Z m 0,0"
     id="path6" />
  <path
     fill-rule="nonzero"
     fill="#393b3e"
     fill-opacity="1"
     d="m 49.015625,96.53125 h 3.429687 v 1.128906 c 0.941407,-0.71875 2.296876,-1.4375 3.632813,-1.4375 1.597656,0 2.6875,0.660156 3.136719,1.703125 0.863281,-0.777343 2.402344,-1.703125 3.859375,-1.703125 3.652343,0 3.589843,2.609375 3.589843,4.496094 v 7.01953 h -3.425781 v -6.73047 c 0,-1.374998 -0.347656,-1.808591 -1.414062,-1.808591 -0.742188,0 -1.683594,0.308593 -2.320313,0.636719 0.03906,0.289062 0.03906,0.574222 0.03906,0.863282 v 7.03906 h -3.40625 v -6.73047 c 0,-1.53906 -0.367188,-1.765622 -1.394531,-1.765622 -0.757813,0 -1.683594,0.226562 -2.296876,0.554687 v 7.941405 h -3.429687 z m 0,0"
     id="path7" />
  <path
     fill-rule="nonzero"
     fill="#393b3e"
     fill-opacity="1"
     d="m 77.953125,102.13672 c 0,-1.80859 -0.449219,-3.183595 -2.339844,-3.183595 -1.847656,0 -2.359375,1.375005 -2.359375,3.203125 0,1.92969 0.574219,3.09766 2.402344,3.09766 1.847656,0 2.296875,-1.21094 2.296875,-3.11719 m -8.148437,0.10156 c 0,-3.714842 2.320312,-5.992186 5.871093,-5.992186 3.980469,0 5.765625,2.234375 5.765625,5.890626 0,3.81641 -2.503906,5.84766 -5.949218,5.84766 -3.695313,0 -5.6875,-2.23829 -5.6875,-5.7461"
     id="path8" />
  <path
     fill-rule="nonzero"
     fill="#393b3e"
     fill-opacity="1"
     d="m 84.582031,96.53125 h 3.429688 v 1.128906 c 0.675781,-0.511718 2.152343,-1.414062 3.652343,-1.414062 3.507813,0 3.753907,1.929687 3.753907,4.472656 v 7.01953 h -3.40625 v -6.73047 c 0,-1.53906 -0.347657,-1.808591 -1.496094,-1.808591 -1.027344,0 -1.953125,0.328125 -2.503906,0.597656 v 7.941405 h -3.429688 z m 0,0"
     id="path9" />
  <path
     fill-rule="nonzero"
     fill="#393b3e"
     fill-opacity="1"
     d="m 99.195312,96.53125 h 3.406248 v 11.20703 h -3.406248 z m -0.59375,-3.488281 2.277348,-2.277344 2.29687,2.277344 -2.29687,2.300781 z m 0,0"
     id="path10" />
  <path
     fill-rule="nonzero"
     fill="#393b3e"
     fill-opacity="1"
     d="m 105.74219,102.03125 c 0,-3.488281 2.33984,-5.785156 6.13672,-5.785156 1.64062,0 2.6875,0.304687 3.57031,0.777344 l -0.88281,2.484374 c -0.90235,-0.347656 -1.39453,-0.472656 -2.54297,-0.472656 -1.41797,0 -2.76953,0.636719 -2.76953,3.039064 0,2.15234 0.51172,3.16016 3.19922,3.16016 0.94531,0 1.45703,-0.125 2.38281,-0.28907 l 0.46875,2.60938 c -1.20703,0.26562 -1.78516,0.41015 -3.03516,0.41015 -4.74219,0 -6.52734,-1.74609 -6.52734,-5.93359"
     id="path11" />
  <path
     fill-rule="nonzero"
     fill="#393b3e"
     fill-opacity="1"
     d="M 8.070312,114.27734 H 11.5625 v 14.51172 H 8.070312 Z m 0,0"
     id="path12" />
  <path
     fill-rule="nonzero"
     fill="#393b3e"
     fill-opacity="1"
     d="m 15.523438,117.58203 h 3.425781 v 1.12891 c 0.675781,-0.51172 2.15625,-1.41797 3.652343,-1.41797 3.511719,0 3.757813,1.92969 3.757813,4.47656 v 7.01953 h -3.40625 v -6.73437 c 0,-1.53906 -0.351563,-1.80469 -1.5,-1.80469 -1.027344,0 -1.949219,0.32813 -2.503906,0.59375 v 7.94531 h -3.425781 z m 0,0"
     id="path13" />
  <path
     fill-rule="nonzero"
     fill="#393b3e"
     fill-opacity="1"
     d="m 30.113281,117.58203 h 3.429688 v 1.12891 c 0.675781,-0.51172 2.152343,-1.41797 3.652343,-1.41797 3.507813,0 3.753907,1.92969 3.753907,4.47656 v 7.01953 h -3.40625 v -6.73437 c 0,-1.53906 -0.347657,-1.80469 -1.496094,-1.80469 -1.027344,0 -1.953125,0.32813 -2.503906,0.59375 v 7.94531 h -3.429688 z m 0,0"
     id="path14" />
  <path
     fill-rule="nonzero"
     fill="#393b3e"
     fill-opacity="1"
     d="m 52.238281,123.18359 c 0,-1.80468 -0.453125,-3.17968 -2.339843,-3.17968 -1.847657,0 -2.359376,1.375 -2.359376,3.20312 0,1.92578 0.574219,3.09766 2.402344,3.09766 1.84375,0 2.296875,-1.21094 2.296875,-3.1211 m -8.148437,0.10547 c 0,-3.71484 2.320312,-5.99609 5.871094,-5.99609 3.980468,0 5.765624,2.23828 5.765624,5.89062 0,3.82032 -2.503906,5.85157 -5.949218,5.85157 -3.695313,0 -5.6875,-2.23828 -5.6875,-5.7461"
     id="path15" />
  <path
     fill-rule="nonzero"
     fill="#393b3e"
     fill-opacity="1"
     d="m 57.636719,117.58203 h 3.671875 l 1.886718,6.07422 0.578126,2.23828 0.632812,-2.23828 2.09375,-6.07422 h 3.59375 l -4.351562,11.20703 h -4.0625 z m 0,0"
     id="path16" />
  <path
     fill-rule="nonzero"
     fill="#393b3e"
     fill-opacity="1"
     d="m 78.632812,125.93359 v -1.76562 l -1.683593,0.043 c -1.007813,0.0195 -1.746094,0.34765 -1.746094,1.16797 0,0.66015 0.636719,0.94531 1.253906,0.94531 0.65625,0 1.433594,-0.18359 2.175781,-0.39063 m -6.753906,-0.34765 c 0,-2.83203 2.585938,-3.40625 4.800782,-3.40625 h 1.953124 v -0.69922 c 0,-0.98438 -0.636718,-1.27344 -2.035156,-1.27344 -1.105468,0 -2.296875,0.25 -3.34375,0.4961 l -0.675781,-2.48438 c 1.269531,-0.49219 2.75,-0.90234 4.535156,-0.90234 3.46875,0 4.863281,0.98437 4.863281,3.50781 v 4.98828 c 0,0.36719 0.371094,0.44922 1.003907,0.47266 l -0.121094,2.58593 c -0.265625,0.0195 -0.535156,0.0195 -0.800781,0.0195 -1.355469,0 -2.792969,-0.22656 -3.097656,-1.1914 -0.820313,0.63672 -1.992188,1.27344 -3.222657,1.27344 -2.464843,0 -3.859375,-1.14844 -3.859375,-3.38672"
     id="path17" />
  <path
     fill-rule="nonzero"
     fill="#393b3e"
     fill-opacity="1"
     d="m 86.738281,125.29688 v -5.19141 H 85.09375 v -2.52344 h 1.644531 v -2.29687 h 3.40625 v 2.29687 h 3.46875 v 2.52344 h -3.46875 v 5.17187 c 0,0.82032 0.308594,0.88282 1.230469,0.88282 0.757812,0 2.421875,-0.22657 2.421875,-0.22657 L 94.125,128.625 c -0.800781,0.22266 -1.886719,0.38672 -2.707031,0.38672 -2.15625,0 -4.679688,0.10547 -4.679688,-3.71484"
     id="path18" />
  <path
     fill-rule="nonzero"
     fill="#393b3e"
     fill-opacity="1"
     d="m 96.875,117.58203 h 3.40625 v 11.20703 H 96.875 Z m -0.59375,-3.48828 2.277344,-2.27734 2.300786,2.27734 -2.300786,2.29688 z m 0,0"
     id="path19" />
  <path
     fill-rule="nonzero"
     fill="#393b3e"
     fill-opacity="1"
     d="m 111.57031,123.18359 c 0,-1.80468 -0.44922,-3.17968 -2.33984,-3.17968 -1.84766,0 -2.35938,1.375 -2.35938,3.20312 0,1.92578 0.57422,3.09766 2.40235,3.09766 1.84765,0 2.29687,-1.21094 2.29687,-3.1211 m -8.14843,0.10547 c 0,-3.71484 2.32031,-5.99609 5.87109,-5.99609 3.98047,0 5.76562,2.23828 5.76562,5.89062 0,3.82032 -2.5039,5.85157 -5.94921,5.85157 -3.69532,0 -5.6875,-2.23828 -5.6875,-5.7461"
     id="path20" />
  <path
     fill-rule="nonzero"
     fill="#393b3e"
     fill-opacity="1"
     d="m 118.19922,117.58203 h 3.42969 v 1.12891 c 0.67578,-0.51172 2.15234,-1.41797 3.65234,-1.41797 3.50781,0 3.75391,1.92969 3.75391,4.47656 v 7.01953 h -3.40625 v -6.73437 c 0,-1.53906 -0.34766,-1.80469 -1.4961,-1.80469 -1.02734,0 -1.95312,0.32813 -2.5039,0.59375 v 7.94531 h -3.42969 z m 0,0"
     id="path21" />
  <path
     fill-rule="nonzero"
     fill="#226d5e"
     fill-opacity="1"
     d="m 7.855469,142.67578 c 0,-5.25391 2.851562,-7.55469 8.125,-7.55469 2.054687,0 3.203125,0.41016 4.351562,0.88282 l -0.921875,2.52734 c -1.375,-0.35156 -2.011718,-0.53516 -3.492187,-0.53516 -2.585938,0 -4.511719,1.27344 -4.511719,4.47266 0,3.20312 2.132812,4.66016 4.78125,4.66016 0.328125,0 0.636719,-0.0195 0.921875,-0.0195 v -4.45312 h 3.492187 v 6.54687 c -1.644531,0.63282 -3.019531,0.83985 -4.785156,0.83985 -4.820312,0 -7.960937,-2.33985 -7.960937,-7.36719"
     id="path22" />
  <path
     fill-rule="nonzero"
     fill="#226d5e"
     fill-opacity="1"
     d="m 24.398438,138.63281 h 3.425781 v 1.4961 c 0.554687,-0.71875 1.601562,-1.72266 2.894531,-1.72266 0.613281,0 1.066406,0.0391 1.539062,0.18359 l -0.453124,2.8125 c -0.65625,-0.125 -0.882813,-0.125 -1.496094,-0.125 -1.007813,0 -2.03125,0.47266 -2.484375,0.96485 v 7.59375 h -3.425781 z m 0,0"
     id="path23" />
  <path
     fill-rule="nonzero"
     fill="#226d5e"
     fill-opacity="1"
     d="m 41.535156,144.23437 c 0,-1.80468 -0.453125,-3.17968 -2.339844,-3.17968 -1.847656,0 -2.363281,1.375 -2.363281,3.19922 0,1.92968 0.578125,3.10156 2.402344,3.10156 1.847656,0 2.300781,-1.21094 2.300781,-3.1211 m -8.148437,0.10157 c 0,-3.71485 2.320312,-5.99219 5.867187,-5.99219 3.984375,0 5.769532,2.23828 5.769532,5.89062 0,3.81641 -2.503907,5.84766 -5.953126,5.84766 -3.695312,0 -5.683593,-2.23437 -5.683593,-5.74609"
     id="path24" />
  <path
     fill-rule="nonzero"
     fill="#226d5e"
     fill-opacity="1"
     d="m 48.164062,145.58984 v -6.95703 h 3.40625 v 6.66797 c 0,1.53906 0.347657,1.80859 1.496094,1.80859 1.027344,0 1.949219,-0.28906 2.503906,-0.55468 v -7.92188 H 59 v 11.20313 h -3.429688 v -1.14844 c -0.675781,0.51562 -2.152343,1.39453 -3.652343,1.39453 -3.507813,0 -3.753907,-1.94922 -3.753907,-4.49219"
     id="path25" />
  <path
     fill-rule="nonzero"
     fill="#226d5e"
     fill-opacity="1"
     d="m 70.367188,143.82422 c 0,-2.01172 -0.800782,-2.60547 -2.523438,-2.60547 -0.574219,0 -1.25,0.16406 -1.683594,0.30859 v 5.78516 c 0.328125,0.043 0.90625,0.125 1.457032,0.125 1.746093,0 2.75,-1.51953 2.75,-3.61328 m -7.613282,-5.19141 h 3.40625 v 0.80078 c 0.453125,-0.39062 1.683594,-1.08984 2.710938,-1.08984 3.078125,0 4.945312,1.41797 4.945312,5.375 0,4.68359 -3.015625,6.32422 -6.28125,6.32422 -0.511718,0 -0.964844,-0.0625 -1.375,-0.082 v 4.39062 h -3.40625 z m 0,0"
     id="path26" />
</svg>
